<?xml version="1.0" standalone="no"?>
<!DOCTYPE svg PUBLIC "-//W3C//DTD SVG 20010904//EN"
 "http://www.w3.org/TR/2001/REC-SVG-20010904/DTD/svg10.dtd">
<svg version="1.0" xmlns="http://www.w3.org/2000/svg"
 width="272.000000pt" height="264.000000pt" viewBox="0 0 272.000000 264.000000"
 preserveAspectRatio="xMidYMid meet">

<g transform="translate(0.000000,264.000000) scale(0.100000,-0.100000)"
fill="#000000" stroke="none">
<path d="M0 1325 l0 -1315 1360 0 1360 0 0 1315 0 1315 -1360 0 -1360 0 0
-1315z m2410 1136 c16 -16 32 -39 35 -52 8 -35 -201 -2149 -216 -2182 -24 -53
-45 -57 -309 -57 l-240 0 0 -50 0 -50 -330 0 -330 0 0 50 0 50 -247 0 c-274 0
-287 3 -315 60 -24 47 -230 2137 -216 2187 5 18 20 41 35 53 26 20 33 20 1065
20 l1040 0 28 -29z"/>
<path d="M2015 2159 c-350 -177 -599 -401 -735 -662 -41 -78 -100 -236 -100
-268 0 -5 106 -9 270 -9 257 0 270 1 270 19 0 31 66 153 114 209 65 76 151
147 224 183 l62 32 0 273 c0 151 -1 274 -2 274 -2 -1 -48 -23 -103 -51z"/>
<path d="M1997 1151 c-29 -15 -37 -16 -37 -5 0 10 -14 14 -50 14 l-50 0 0
-185 0 -185 50 0 49 0 3 136 c3 118 5 138 21 148 12 8 22 8 35 0 15 -10 17
-30 20 -148 l3 -136 49 0 50 0 0 174 c0 169 -1 175 -22 190 -30 21 -76 20
-121 -3z"/>
<path d="M560 975 l0 -185 105 0 105 0 0 34 c0 34 -1 35 -47 38 -48 3 -48 3
-51 41 l-3 37 50 0 c50 0 51 1 51 29 0 28 -2 30 -47 33 -48 3 -48 3 -51 41
l-3 37 50 0 51 0 0 40 0 40 -105 0 -105 0 0 -185z"/>
<path d="M810 975 l0 -185 105 0 105 0 0 34 c0 34 -1 35 -47 38 l-48 3 -3 148
-3 147 -54 0 -55 0 0 -185z"/>
<path d="M1050 975 l0 -185 105 0 105 0 0 35 c0 35 0 35 -45 35 l-45 0 0 40 0
40 45 0 c43 0 45 1 45 30 0 29 -2 30 -45 30 l-45 0 0 40 0 40 45 0 45 0 0 40
0 40 -105 0 -105 0 0 -185z"/>
<path d="M1290 1148 c0 -7 12 -91 27 -186 l27 -173 75 3 75 3 32 170 c18 94
33 176 33 183 1 7 -13 12 -38 12 -44 0 -40 10 -67 -147 -10 -57 -20 -101 -23
-98 -2 3 -14 58 -25 123 l-21 117 -48 3 c-33 2 -47 -1 -47 -10z"/>
<path d="M1590 975 l0 -185 105 0 105 0 0 35 c0 35 0 35 -45 35 l-45 0 0 40 0
40 45 0 c43 0 45 1 45 29 0 28 -3 30 -42 33 -42 3 -43 4 -46 41 l-3 37 45 0
46 0 0 40 0 40 -105 0 -105 0 0 -185z"/>
<path d="M1095 728 c-8 -26 -25 -348 -25 -481 l0 -137 283 0 284 0 7 257 c4
141 9 283 13 315 l6 58 -282 0 c-216 0 -283 -3 -286 -12z"/>
</g>
</svg>
