<?xml version="1.0" standalone="no"?>
<!DOCTYPE svg PUBLIC "-//W3C//DTD SVG 20010904//EN"
 "http://www.w3.org/TR/2001/REC-SVG-20010904/DTD/svg10.dtd">
<svg version="1.0" xmlns="http://www.w3.org/2000/svg"
 width="300.000000pt" height="231.000000pt" viewBox="0 0 300.000000 231.000000"
 preserveAspectRatio="xMidYMid meet">

<g transform="translate(0.000000,231.000000) scale(0.100000,-0.100000)"
fill="#000000" stroke="none">
<path d="M123 2299 c-45 -13 -100 -71 -113 -118 -7 -27 -10 -361 -8 -1048 l3
-1008 23 -37 c13 -20 40 -47 60 -60 l37 -23 1375 0 1375 0 37 23 c20 13 47 40
60 60 l23 37 0 1030 0 1030 -23 37 c-13 20 -40 47 -60 60 l-37 23 -1360 2
c-829 1 -1373 -2 -1392 -8z m792 -262 c-11 -7 -43 -34 -72 -62 -137 -134 -95
-350 86 -433 45 -21 64 -24 121 -20 96 7 165 50 228 144 25 38 3 -68 -28 -132
-112 -230 -444 -260 -596 -55 -151 204 -45 497 200 557 67 16 87 16 61 1z
m505 -21 c0 -7 10 -18 23 -24 l22 -11 -22 -6 c-11 -4 -24 -17 -28 -28 l-6 -22
-11 22 c-6 12 -20 24 -32 28 -21 6 -21 6 2 16 13 5 26 18 29 29 6 21 23 18 23
-4z m350 -223 c17 -3 30 -9 30 -13 0 -4 -13 -10 -30 -13 -21 -5 -33 -15 -43
-39 l-13 -33 -12 33 c-8 24 -19 34 -42 38 -16 4 -30 10 -30 14 0 4 14 10 30
14 23 4 34 14 42 38 l12 33 13 -33 c10 -24 22 -34 43 -39z m-251 -242 c12 -48
14 -50 63 -61 55 -14 53 -21 -8 -38 -37 -11 -43 -16 -54 -57 -7 -25 -16 -45
-20 -45 -4 0 -13 20 -20 45 -11 41 -17 46 -54 57 -61 17 -63 24 -8 38 49 11
51 13 63 61 7 27 16 49 19 49 3 0 12 -22 19 -49z m-976 -478 c4 -2 7 -21 7
-42 l0 -39 -64 -4 c-84 -5 -106 -23 -106 -88 0 -65 22 -83 106 -88 l64 -4 0
-43 c0 -42 -1 -43 -39 -49 -92 -14 -189 22 -225 83 -15 26 -20 53 -20 101 0
107 46 162 151 180 44 7 107 4 126 -7z m326 -15 c67 -42 92 -167 51 -253 -56
-115 -254 -121 -317 -9 -45 79 -25 209 39 257 55 41 164 43 227 5z m213 -97
c2 -100 6 -122 22 -140 22 -25 35 -26 62 -7 16 12 20 31 24 138 l5 123 53 3
52 3 0 -128 c0 -145 -12 -183 -70 -217 -45 -27 -134 -27 -180 -1 -59 35 -74
74 -79 202 -2 62 -1 120 3 128 4 11 20 15 55 15 l49 0 4 -119z m439 24 l49
-90 0 93 0 92 50 0 50 0 0 -180 0 -180 -58 0 -58 0 -54 103 -55 102 -3 -102
-3 -103 -49 0 -50 0 0 180 0 181 66 -3 67 -3 48 -90z m519 50 l0 -45 -55 0
-55 0 0 -135 0 -135 -55 0 -55 0 0 134 0 135 -52 3 -53 3 -3 43 -3 42 165 0
166 0 0 -45z m325 0 l0 -40 -82 -3 c-81 -3 -83 -3 -83 -27 0 -25 1 -25 85 -25
l85 0 0 -40 0 -40 -85 0 c-84 0 -85 0 -85 -25 0 -24 2 -24 83 -27 l82 -3 0
-40 0 -40 -142 -3 -143 -3 0 174 c0 96 3 177 7 181 4 3 68 5 142 4 l136 -3 0
-40z m302 25 c49 -32 57 -102 17 -150 -27 -31 -27 -31 -7 -53 19 -22 53 -101
53 -125 0 -8 -19 -12 -58 -12 l-59 0 -12 43 c-15 50 -37 77 -63 77 -15 0 -18
-8 -18 -60 l0 -60 -55 0 -55 0 0 181 0 181 118 -4 c78 -2 124 -8 139 -18z
m-658 -436 c29 -6 31 -9 31 -49 l0 -43 -66 -4 c-55 -3 -70 -8 -85 -27 -26 -32
-24 -84 4 -117 20 -23 31 -27 86 -28 l62 -1 -3 -45 -3 -45 -80 0 c-130 1 -186
46 -193 159 -7 113 37 176 138 197 48 9 72 10 109 3z m-1478 -14 c13 -8 19
-21 19 -47 l0 -36 -54 7 c-64 7 -116 -1 -116 -20 0 -7 25 -20 56 -29 72 -21
114 -61 114 -108 0 -42 -31 -84 -76 -103 -35 -15 -129 -18 -183 -8 -28 6 -31
10 -31 45 l0 38 88 3 c68 2 87 6 87 17 0 9 -22 21 -59 32 -94 28 -129 75 -105
146 18 54 58 73 157 73 46 0 92 -5 103 -10z m339 -35 l0 -45 -85 0 c-84 0 -85
0 -85 -25 0 -25 1 -25 85 -25 l85 0 0 -40 0 -40 -85 0 c-84 0 -85 0 -85 -25 0
-25 1 -25 85 -25 l85 0 0 -45 0 -45 -140 0 -140 0 0 180 0 180 140 0 140 0 0
-45z m314 15 c38 -39 39 -106 2 -141 -24 -23 -24 -24 -6 -44 17 -19 60 -115
60 -135 0 -6 -26 -10 -59 -10 l-58 0 -19 52 c-18 50 -55 85 -76 72 -4 -3 -8
-32 -8 -65 l0 -59 -55 0 -55 0 0 181 0 181 125 -4 c118 -3 126 -4 149 -28z
m180 -62 c17 -47 33 -89 36 -92 3 -3 21 37 39 89 l33 95 54 0 c30 0 54 -4 54
-9 0 -5 -30 -87 -67 -181 l-66 -171 -46 3 -45 3 -68 170 c-37 94 -68 174 -68
178 0 4 25 7 56 5 l56 -3 32 -87z m364 -85 l-3 -178 -55 0 -55 0 -3 178 -2
177 60 0 60 0 -2 -177z m1010 165 c-4 -10 -53 -14 -192 -16 -143 -2 -187 -5
-183 -15 3 -9 53 -12 188 -14 119 -1 185 -5 187 -12 3 -8 -44 -11 -146 -11
-82 0 -204 -3 -270 -7 -119 -6 -122 -7 -122 -30 0 -22 3 -23 79 -23 61 0 80
-3 85 -15 4 -13 35 -15 191 -15 117 0 185 -4 185 -10 0 -6 -68 -10 -184 -10
-154 0 -185 -2 -190 -15 -4 -12 -24 -15 -86 -15 -77 0 -80 -1 -80 -24 0 -23 1
-23 144 -30 79 -4 199 -6 267 -5 82 1 124 -2 127 -10 2 -7 -54 -11 -184 -13
-139 -2 -188 -6 -192 -15 -3 -10 39 -13 188 -13 149 0 191 -3 188 -12 -4 -10
-78 -13 -329 -13 l-324 0 -3 178 -2 177 331 0 c260 0 330 -3 327 -12z m0 -110
c-4 -10 -53 -14 -191 -16 -162 -2 -187 0 -187 13 0 13 27 15 191 15 148 0 190
-3 187 -12z m0 -110 c-4 -10 -53 -14 -191 -16 -162 -2 -187 0 -187 13 0 13 27
15 191 15 148 0 190 -3 187 -12z"/>
<path d="M732 1000 c-52 -21 -58 -159 -8 -192 21 -14 63 -8 80 11 41 45 27
163 -21 182 -13 5 -25 9 -26 8 -1 0 -12 -4 -25 -9z"/>
<path d="M2520 956 c0 -31 3 -36 23 -36 13 0 32 6 43 14 26 20 8 50 -35 54
-30 3 -31 2 -31 -32z"/>
<path d="M1020 500 c0 -30 2 -31 38 -28 32 3 37 6 37 28 0 22 -5 25 -37 28
-36 3 -38 2 -38 -28z"/>
</g>
</svg>
