<?xml version="1.0" standalone="no"?>
<!DOCTYPE svg PUBLIC "-//W3C//DTD SVG 20010904//EN"
 "http://www.w3.org/TR/2001/REC-SVG-20010904/DTD/svg10.dtd">
<svg version="1.0" xmlns="http://www.w3.org/2000/svg"
 width="300.000000pt" height="227.000000pt" viewBox="0 0 300.000000 227.000000"
 preserveAspectRatio="xMidYMid meet">

<g transform="translate(0.000000,227.000000) scale(0.100000,-0.100000)"
fill="#000000" stroke="none">
<path d="M632 2257 c-9 -10 21 -121 115 -438 69 -233 132 -432 141 -441 14
-16 39 -18 254 -18 131 0 238 2 238 5 0 3 -41 141 -90 308 -54 179 -89 312
-86 327 7 37 -60 247 -84 260 -30 16 -475 13 -488 -3z"/>
<path d="M50 895 c0 -41 -2 -45 -25 -45 -23 0 -25 -4 -25 -45 0 -41 2 -45 24
-45 23 0 24 -3 27 -84 4 -78 6 -87 34 -117 38 -40 82 -59 140 -59 l45 0 0 45
0 45 -45 0 c-56 0 -65 15 -65 104 l0 66 36 0 c54 0 74 15 74 55 l0 35 -55 0
-55 0 0 45 0 45 -55 0 -55 0 0 -45z"/>
<path d="M995 846 c-69 -30 -118 -138 -96 -214 26 -90 81 -132 171 -132 57 0
93 15 129 54 28 30 29 29 -27 45 -36 10 -46 10 -64 -4 -13 -8 -32 -15 -43 -15
-26 0 -65 27 -65 45 0 11 24 15 118 17 l117 3 -1 53 c-4 123 -125 198 -239
148z m120 -91 c39 -38 32 -45 -45 -45 -49 0 -70 4 -70 13 0 17 12 32 35 45 31
18 54 14 80 -13z"/>
<path d="M350 812 l-40 -39 0 -136 0 -137 45 0 45 0 0 104 c0 89 3 107 21 130
16 20 29 26 60 26 l39 0 0 45 0 45 -65 0 c-61 0 -66 -2 -105 -38z"/>
<path d="M550 735 c0 -126 10 -164 54 -205 36 -33 136 -41 191 -14 64 30 75
60 75 207 l0 127 -50 0 -50 0 0 -113 c0 -125 -9 -147 -62 -147 -43 0 -53 24
-58 144 l-5 111 -47 3 -48 3 0 -116z"/>
<path d="M1363 265 c0 -8 4 -12 9 -9 5 3 6 10 3 15 -9 13 -12 11 -12 -6z"/>
<path d="M1843 253 c0 -9 4 -10 14 -2 7 6 13 12 13 14 0 1 -6 2 -13 2 -8 0
-14 -6 -14 -14z"/>
<path d="M1454 48 l-19 -23 23 19 c12 11 22 21 22 23 0 8 -8 2 -26 -19z"/>
<path d="M1836 61 c-4 -5 -2 -12 3 -15 5 -4 12 -2 15 3 4 5 2 12 -3 15 -5 4
-12 2 -15 -3z"/>
</g>
</svg>
